<svg xmlns="http://www.w3.org/2000/svg" xmlns:xlink="http://www.w3.org/1999/xlink" width="940" zoomAndPan="magnify" viewBox="0 0 705 591.000005" height="788" preserveAspectRatio="xMidYMid meet" version="1.0"><path fill="#0d6efd" d="M 619.730469 266.027344 L 579.886719 266.027344 C 554.125 349.734375 472.429688 391.589844 334.789062 391.589844 L 257.121094 391.589844 L 257.121094 590 L 137.992188 590 L 137.992188 266.027344 L 85.269531 266.027344 L 85.269531 212.902344 L 137.992188 212.902344 L 137.992188 178.695312 L 85.269531 178.695312 L 85.269531 125.570312 L 137.992188 125.570312 L 137.992188 0 L 329.160156 0 C 397.574219 0 450.558594 7.644531 488.128906 22.9375 C 536.6875 42.527344 567.816406 76.742188 581.496094 125.5625 L 619.730469 125.5625 L 619.730469 178.6875 L 589.542969 178.6875 C 589.804688 184.59375 589.945312 189.554688 589.945312 193.578125 C 589.945312 202.175781 589.804688 208.613281 589.542969 212.894531 L 619.730469 212.894531 Z M 434.597656 125.5625 C 410.707031 108.402344 370.734375 99.804688 314.667969 99.804688 L 257.121094 99.804688 L 257.121094 125.5625 Z M 467.203125 195.191406 C 467.203125 189.554688 466.800781 184.0625 465.992188 178.6875 L 257.121094 178.6875 L 257.121094 212.894531 L 465.992188 212.894531 C 466.792969 208.070312 467.203125 202.175781 467.203125 195.191406 Z M 432.183594 266.027344 L 257.121094 266.027344 L 257.121094 291.378906 L 322.316406 291.378906 C 371.144531 291.378906 407.765625 282.929688 432.183594 266.027344 Z M 432.183594 266.027344 " fill-opacity="1" fill-rule="nonzero"/></svg>